<?xml version="1.0" standalone="no"?>
<!DOCTYPE svg PUBLIC "-//W3C//DTD SVG 20010904//EN"
 "http://www.w3.org/TR/2001/REC-SVG-20010904/DTD/svg10.dtd">
<svg version="1.0" xmlns="http://www.w3.org/2000/svg"
 width="512.000000pt" height="512.000000pt" viewBox="0 0 512.000000 512.000000"
 preserveAspectRatio="xMidYMid meet">

<g transform="translate(0.000000,512.000000) scale(0.100000,-0.100000)"
fill="#000000" stroke="none">
<path d="M190 5111 c-69 -21 -130 -73 -166 -141 -18 -33 -19 -67 -19 -570 0
-530 0 -535 22 -576 27 -50 75 -97 122 -121 33 -17 79 -18 564 -21 497 -2 530
-1 570 16 62 28 102 66 131 124 l26 52 0 516 c0 365 -3 527 -12 551 -19 58
-67 115 -121 145 l-52 29 -301 3 -302 3 -26 -23 c-32 -27 -38 -80 -12 -106 15
-15 52 -18 299 -22 l282 -5 -2 -85 c-3 -149 -63 -327 -156 -466 -29 -43 -56
-79 -62 -81 -5 -2 -34 61 -64 140 -116 308 -111 297 -141 312 -16 8 -40 15
-54 15 -54 0 -70 -31 -201 -374 -69 -181 -125 -341 -125 -356 0 -29 33 -66 65
-72 30 -6 -76 -28 -179 -37 -143 -13 -127 -71 -124 468 3 496 3 490 52 521 11
7 51 15 89 18 58 4 71 8 88 31 25 31 19 77 -12 104 -23 18 -129 23 -179 8z
m604 -778 c7 -23 6 -23 -73 -23 l-80 0 13 38 c8 20 23 60 33 87 11 28 23 59
27 70 6 16 15 2 41 -65 18 -47 35 -95 39 -107z m-34 -204 c-25 -19 -218 -119
-232 -119 -4 0 3 24 16 53 12 28 26 60 29 70 6 15 20 17 109 17 l103 0 -25
-21z"/>
<path d="M3000 5111 c-75 -23 -136 -78 -169 -151 -20 -43 -21 -64 -21 -556 0
-555 0 -556 56 -630 15 -19 48 -47 73 -62 l46 -27 545 0 c606 0 571 -4 643 69
74 74 72 51 75 631 2 466 1 525 -14 564 -21 55 -75 116 -128 144 -40 22 -48
22 -561 24 -286 1 -531 -2 -545 -6z m1040 -156 c61 -32 61 -26 58 -571 l-3
-496 -33 -29 -32 -29 -501 0 -501 0 -34 34 -34 34 0 490 c0 295 4 501 10 516
5 14 24 35 42 46 32 19 51 20 516 20 412 0 487 -2 512 -15z"/>
<path d="M3490 4785 c-337 -94 -405 -537 -112 -723 147 -94 353 -76 456 38 41
46 45 76 15 114 -31 39 -78 36 -127 -9 -52 -46 -114 -63 -182 -47 -196 45
-262 281 -118 419 74 71 181 85 287 38 53 -24 64 -26 90 -15 37 15 56 56 42
92 -28 75 -226 127 -351 93z"/>
<path d="M1670 4793 c-52 -20 -68 -85 -30 -123 19 -19 33 -20 325 -20 300 0
304 0 325 22 25 27 26 69 1 99 l-19 24 -294 2 c-161 1 -300 -1 -308 -4z"/>
<path d="M4454 4777 c-34 -30 -36 -83 -3 -109 19 -16 50 -18 324 -18 l304 0
20 26 c34 43 26 86 -20 109 -23 12 -82 15 -313 15 -284 0 -285 0 -312 -23z"/>
<path d="M1640 4450 c-27 -27 -26 -81 1 -106 19 -17 41 -19 202 -22 197 -4
218 -1 247 28 26 26 25 60 -1 94 l-20 26 -205 0 c-191 0 -205 -1 -224 -20z"/>
<path d="M4451 4452 c-30 -24 -31 -76 -2 -105 20 -21 32 -22 216 -25 l195 -3
30 30 c35 35 38 59 9 95 l-20 26 -204 0 c-179 0 -205 -2 -224 -18z"/>
<path d="M1642 4127 c-31 -33 -29 -80 4 -106 25 -20 40 -21 221 -21 193 0 194
0 218 25 14 13 25 36 25 50 0 14 -11 37 -25 50 -24 25 -25 25 -223 25 -195 0
-199 0 -220 -23z"/>
<path d="M4457 4138 c-24 -19 -36 -59 -25 -87 17 -48 30 -50 239 -51 178 0
199 2 220 19 17 13 23 29 23 56 0 27 -6 43 -23 56 -21 17 -43 19 -220 19 -142
0 -202 -3 -214 -12z"/>
<path d="M162 3485 c-55 -24 -98 -63 -128 -117 l-29 -53 0 -535 c0 -533 0
-535 22 -576 12 -23 41 -58 64 -77 68 -58 108 -67 314 -67 l182 0 76 -248 c42
-136 77 -251 77 -255 0 -4 -17 -7 -38 -7 -152 0 -282 -129 -282 -281 0 -36
249 -862 290 -962 34 -84 88 -146 200 -229 107 -79 137 -91 172 -64 28 21 40
64 25 91 -6 13 -52 53 -100 89 -97 72 -118 93 -146 147 -11 19 -81 235 -156
478 -149 484 -150 487 -96 542 51 50 130 48 180 -5 14 -15 49 -111 96 -264
l75 -242 -25 -50 c-33 -65 -33 -103 1 -129 57 -45 96 -20 153 96 l33 70 -261
845 c-143 465 -261 858 -261 872 0 66 58 119 130 119 45 0 82 -23 104 -66 9
-17 104 -315 211 -662 203 -657 206 -665 260 -665 33 0 75 37 75 66 0 14 -43
165 -96 336 -108 349 -110 371 -55 420 17 15 43 31 58 34 36 9 102 -15 125
-46 10 -15 62 -165 114 -335 62 -200 103 -318 117 -332 28 -31 71 -30 102 2
14 13 25 31 25 38 0 8 -32 118 -71 243 -63 204 -69 233 -60 265 20 66 83 103
150 88 64 -14 78 -40 152 -280 72 -231 86 -259 134 -259 34 0 75 37 75 68 0
15 -16 82 -37 149 -34 115 -35 124 -22 160 41 106 187 109 232 6 9 -21 42
-121 73 -223 33 -110 64 -194 77 -207 37 -40 108 -22 121 31 8 33 -123 453
-157 505 -29 43 -93 91 -146 109 -81 28 -200 5 -258 -50 -13 -12 -23 -17 -23
-11 0 23 -92 112 -137 134 -86 41 -218 26 -279 -32 l-22 -21 -66 66 -66 66 0
518 0 518 -26 52 c-28 57 -69 96 -129 123 -37 17 -78 19 -565 18 -430 0 -531
-2 -558 -14z m1073 -147 c55 -25 55 -26 55 -556 l0 -490 -43 -10 c-24 -6 -60
-23 -81 -37 -22 -15 -42 -23 -46 -18 -13 15 -130 408 -130 438 0 38 -30 102
-63 137 -25 27 -26 29 -10 65 38 90 11 200 -64 262 -52 43 -88 51 -232 51
-114 0 -127 -2 -148 -22 l-23 -21 0 -352 c0 -318 2 -353 18 -375 9 -14 29 -63
43 -110 l27 -85 -149 -3 c-119 -2 -155 1 -179 13 -62 32 -61 25 -58 571 l3
496 33 29 32 29 495 0 c362 0 501 -3 520 -12z m-475 -328 c27 -27 26 -81 -1
-106 -15 -13 -40 -20 -90 -22 l-69 -4 0 76 0 76 70 0 c57 0 74 -4 90 -20z"/>
<path d="M2949 3472 c-60 -31 -113 -93 -129 -150 -6 -23 -10 -226 -10 -547 0
-491 1 -512 21 -555 25 -55 71 -105 124 -133 40 -22 46 -22 575 -22 529 0 535
0 575 22 53 28 99 78 124 133 20 43 21 64 21 556 0 561 0 558 -60 634 -17 21
-54 50 -82 64 l-52 26 -277 0 c-249 0 -279 -2 -298 -18 -33 -26 -31 -79 3
-109 27 -23 29 -23 286 -23 l260 0 32 -29 33 -29 3 -496 c3 -552 4 -544 -63
-572 -51 -21 -959 -21 -1010 0 -66 28 -65 21 -65 567 l0 491 34 34 c33 33 36
34 119 34 76 0 89 3 113 23 20 18 27 32 26 58 -1 57 -27 69 -147 69 -93 0
-108 -3 -156 -28z"/>
<path d="M1642 3157 c-31 -33 -29 -80 4 -106 26 -20 38 -21 321 -21 l294 0 24
25 c34 33 33 77 -1 104 -26 20 -38 21 -324 21 l-297 0 -21 -23z"/>
<path d="M3255 3156 l-25 -25 0 -346 0 -347 29 -29 c29 -28 32 -29 128 -29
123 0 206 14 259 45 247 143 240 592 -10 723 -47 25 -62 27 -203 30 -152 4
-152 4 -178 -22z m312 -145 c130 -60 145 -354 21 -443 -27 -19 -48 -24 -120
-26 l-88 -4 0 246 0 246 73 0 c49 0 85 -6 114 -19z"/>
<path d="M4457 3168 c-24 -19 -36 -59 -25 -87 18 -50 23 -50 341 -51 l298 0
24 25 c14 13 25 36 25 50 0 14 -11 37 -25 50 l-24 25 -299 0 c-223 0 -302 -3
-315 -12z"/>
<path d="M1647 2840 c-34 -27 -37 -80 -7 -110 19 -19 33 -20 224 -20 l205 0
20 26 c26 33 27 65 2 95 -19 24 -23 24 -218 27 -190 3 -200 2 -226 -18z"/>
<path d="M4454 2837 c-34 -30 -36 -83 -3 -109 19 -16 45 -18 224 -18 l204 0
20 26 c24 30 26 43 10 77 -19 41 -48 47 -244 47 -178 0 -185 -1 -211 -23z"/>
<path d="M1640 2510 c-27 -27 -26 -81 1 -106 19 -17 41 -19 192 -22 94 -2 187
-1 205 3 67 13 91 68 51 119 l-20 26 -205 0 c-191 0 -205 -1 -224 -20z"/>
<path d="M4446 2511 c-25 -27 -24 -78 3 -104 21 -21 29 -22 222 -22 l201 0 24
28 c29 34 30 56 3 91 l-20 26 -208 0 c-192 0 -209 -1 -225 -19z"/>
<path d="M2593 1255 c-44 -19 -50 -51 -25 -133 95 -314 89 -283 101 -505 l12
-208 59 -187 c61 -195 77 -222 127 -222 28 0 73 41 73 68 0 10 -25 97 -55 193
l-54 175 -12 205 c-12 215 -22 266 -106 519 -24 73 -32 86 -58 96 -24 10 -37
9 -62 -1z"/>
</g>
</svg>
